<svg width="293" height="43" viewBox="0 0 293 43" fill="none" xmlns="http://www.w3.org/2000/svg">
<g clip-path="url(#clip0_10_65)">
<path d="M70.9969 17.5817H49.067L48.4662 11.5537L43.2591 17.2803L42.0574 10.6495L38.9532 17.1799H23.0314L21.0287 16.3761L19.2262 17.2803L17.0232 16.2757L15.5212 17.2803H5.60766L3.10424 0.803711L0 16.5771L0.500684 43H6.90943L7.10971 39.785L6.40875 39.1822L6.50889 32.6518H8.51162L11.1152 43H16.4224L16.122 39.2827L15.1206 38.6799L15.0205 32.25L18.325 33.9579L19.2262 32.25L33.4457 32.1495L32.244 43H38.0519V39.2827L37.2509 38.6799L38.1521 32.3504H41.4566L43.2591 43H48.9669L48.5663 38.7803L47.4648 38.278L47.5649 31.9486L69.6951 31.3458L69.7953 26.8247L49.5677 25.9205L49.4675 24.0117L70.8968 22.5046L70.9969 17.5817Z" fill="#D71A21"/>
<path d="M50.869 21.2991C50.3683 21.2991 49.9678 20.8972 49.9678 20.4953C49.9678 19.993 50.3683 19.6916 50.869 19.6916C51.3697 19.6916 51.7702 20.0935 51.7702 20.4953C51.7702 20.8972 51.4698 21.2991 51.0693 21.2991C51.0693 21.2991 50.9691 21.2991 50.869 21.2991Z" fill="#181716"/>
<path d="M48.4657 21.1985C47.965 21.1985 47.5645 20.7967 47.5645 20.3948C47.5645 19.8925 47.965 19.5911 48.4657 19.5911C48.9664 19.5911 49.3669 19.9929 49.3669 20.3948C49.2668 20.7967 48.9664 21.1985 48.4657 21.1985Z" fill="#181716"/>
<path d="M92.5267 5.32477C92.5267 5.12383 92.6268 5.02336 92.7269 4.9229C92.9272 4.72196 93.1275 4.72196 93.1275 4.72196H94.9299C95.0301 4.72196 95.2303 4.72196 95.3305 4.9229C95.4306 5.02336 95.5308 5.12383 95.5308 5.32477V11.1519H98.635V4.32009C98.635 3.81776 98.5349 3.51636 98.2344 3.21495C97.7338 2.71262 97.2331 2.71262 96.7324 2.71262H91.5253C90.9245 2.71262 90.4238 2.71262 90.0232 3.21495C89.6227 3.51636 89.5226 3.91822 89.5226 4.32009V11.0514H92.6268L92.5267 5.32477ZM83.3141 11.0514H88.1206V8.94159H85.1165C84.6159 8.94159 83.8148 8.94159 83.4142 8.43925C83.3141 8.23832 83.1138 7.83645 83.1138 6.93224C83.1138 6.42991 83.2139 6.1285 83.3141 5.8271C83.5143 5.32477 83.9149 4.82243 84.9163 4.82243H88.0205V2.81308H83.5144C82.513 2.81308 81.6118 3.01402 80.9108 3.61682C80.1097 4.42056 80.0096 5.8271 80.0096 7.03271C80.0096 8.23832 80.1097 9.24299 80.7105 10.1472C81.5116 10.9509 82.6131 11.0514 83.3141 11.0514ZM104.343 15.5724V22.4042H96.8325C92.7269 22.4042 91.325 23.9112 90.7242 25.6192C90.3236 26.7243 90.1234 27.729 90.1234 29.1355C90.1234 32.25 90.7242 33.3551 91.0246 33.8575C92.5267 35.8668 95.6309 35.6659 97.4334 35.6659H104.243V42.4977H90.7242C87.9204 42.4977 83.7146 42.0958 80.8107 39.2827C78.4074 36.8715 78.0068 33.5561 78.0068 29.4369C78.0068 25.5187 78.2071 21.2991 81.6118 18.5864C84.015 16.4766 87.5198 15.7734 91.4252 15.7734H104.343V15.5724ZM104.343 11.2523L104.443 9.04206H104.343C104.042 9.04206 103.542 8.94159 103.442 8.74065C103.141 8.53972 102.941 8.13785 102.941 7.83645V5.5257H104.343V3.51636H102.941C102.941 3.01402 103.241 2.71262 103.442 2.51168C103.742 2.31075 104.042 2.21028 104.443 2.21028V0H103.041C102.24 0 101.038 0.401869 100.437 1.30607C100.037 1.80841 99.8366 2.41121 99.8366 3.31542V7.73598C99.8366 8.43925 99.8366 9.34346 100.337 9.94626C100.938 11.1519 102.54 11.2523 104.343 11.2523ZM104.343 15.5724H108.649V22.4042H104.343V15.5724ZM104.343 35.5654H109.35V42.3972H104.343V35.5654ZM128.976 15.472V22.5047C125.772 22.5047 124.37 23.6098 123.669 24.3131C123.168 24.8154 122.568 25.9206 122.468 29.035C122.468 31.9486 123.168 33.1542 123.669 33.6565C123.869 33.9579 125.371 35.465 128.976 35.5654V42.5981C123.869 42.5981 118.062 42.4977 114.557 39.8855C110.551 36.8715 110.251 31.5467 110.251 28.9346C110.251 26.222 110.551 20.8972 114.557 17.8832C118.062 15.472 123.769 15.271 128.976 15.472ZM104.343 2.10981H108.448V0H104.343V2.10981ZM104.343 11.2523C106.245 11.2523 107.547 11.1519 108.348 10.0467C108.949 9.24299 108.949 8.23832 108.949 7.23364C108.949 6.32944 108.949 5.32477 108.348 4.6215C107.647 3.61682 106.346 3.51636 105.544 3.51636H104.343V5.5257H104.543C105.244 5.5257 105.444 5.92757 105.544 6.1285C105.745 6.53037 105.745 6.93224 105.745 7.33411C105.745 7.73598 105.745 8.43925 105.244 8.84112C104.944 8.94159 104.443 9.04206 104.343 9.04206V11.2523ZM128.976 42.6986V35.6659C132.281 35.6659 133.683 34.4603 134.184 33.757C135.185 32.6519 135.385 31.0444 135.385 29.1355C135.385 26.3224 134.884 25.0164 134.284 24.4136C133.683 23.8107 132.281 22.6051 128.976 22.6051V15.5724C134.083 15.5724 139.891 15.6729 143.396 18.285C147.402 21.2991 147.702 26.6238 147.702 29.236C147.702 31.9486 147.402 37.2734 143.296 40.2874C139.791 42.5981 134.083 42.7991 128.976 42.6986ZM166.928 15.472V22.1028H165.827C164.625 22.1028 163.123 22.2033 162.222 23.2079C161.621 23.7103 161.621 24.514 161.621 24.9159V25.3178H166.928V31.6472H161.621V33.3551C161.621 33.8575 161.721 34.2593 162.122 34.6612C162.522 34.9626 163.323 35.0631 163.924 35.0631H166.928V42.1963H156.614C154.812 42.1963 152.709 42.0958 151.107 40.7897C149.705 39.4836 149.504 37.8762 149.504 36.4696L149.605 25.3178C149.605 23.2079 150.005 19.993 152.609 17.8832C154.111 16.6776 156.714 15.5724 160.62 15.5724H166.928V15.472ZM166.928 22.0023V15.3715H182.149L182.049 22.1028L166.928 22.0023ZM166.928 42.0958V34.9626H170.133C170.733 34.9626 171.334 34.7617 171.835 34.4603C172.336 34.0584 172.336 33.6565 172.336 33.2547C172.336 32.8528 172.336 32.3505 171.835 32.0491C171.234 31.7477 170.433 31.5467 170.032 31.5467H166.928V25.2173H175.74C177.743 25.2173 179.746 25.3178 181.548 26.4229C184.052 28.0304 184.352 30.8435 184.352 33.1542C184.352 35.264 184.152 38.8808 181.748 40.6893C179.946 41.9953 177.843 42.0958 175.84 42.0958H166.928ZM202.977 25.7196V32.0491H199.873C199.473 32.0491 198.672 32.0491 198.071 32.5514C197.57 32.9533 197.57 33.3551 197.57 33.757C197.57 34.2593 197.57 34.6612 198.071 34.9626C198.471 35.264 199.172 35.465 199.673 35.465H202.977V42.4977H202.877H194.165C192.163 42.4977 189.86 42.3972 188.257 41.0911C185.754 39.2827 185.654 35.6659 185.654 33.5561C185.654 31.3458 185.954 28.4322 188.458 26.8248C190.26 25.7196 192.363 25.7196 194.266 25.7196H202.977V25.7196ZM202.977 22.4042H187.857V15.7734H202.977V22.4042ZM234.621 15.7734H222.604V42.5981H234.52L234.621 15.7734ZM202.977 42.4977V35.465H205.881C206.582 35.465 207.283 35.3645 207.684 35.0631C208.285 34.6612 208.385 34.2593 208.385 33.757V32.0491H202.977V25.7196H208.385V25.3178C208.385 24.8154 208.285 24.1121 207.784 23.5093C206.883 22.5047 205.281 22.4042 204.079 22.4042H202.977V15.7734H209.286C213.292 15.7734 215.895 16.979 217.297 18.0841C220.001 20.1939 220.401 23.4089 220.401 25.6192L220.301 36.771C220.301 38.1776 220.201 39.785 218.699 41.0911C217.197 42.3972 215.094 42.4977 213.191 42.4977H202.977ZM259.254 41.5935L248.84 31.0444C248.239 30.4416 247.438 29.5374 247.438 28.8341C247.438 28.2313 248.039 27.3271 249.241 26.021L258.854 15.8738H245.636L237.725 25.3178C236.423 26.8248 235.722 27.9299 235.722 28.8341C235.722 29.8388 236.523 30.9439 237.324 31.8481L246.737 42.5981H259.254V41.5935ZM259.254 28.8341V39.1822C258.353 37.3738 258.353 35.1635 258.353 33.757C258.353 32.1495 258.453 30.3411 259.254 28.8341ZM259.254 42.5981H260.155L259.254 41.6939V42.5981ZM276.277 25.8201V32.1495H272.472C272.072 32.1495 271.271 32.25 270.67 32.6519C270.269 33.0537 270.169 33.4556 270.169 33.8575C270.169 34.3598 270.269 34.6612 270.67 35.0631C271.17 35.3645 271.771 35.5654 272.372 35.5654H276.277V42.7991H275.677L266.865 42.6986C264.862 42.6986 262.659 42.5981 261.057 41.2921C260.256 40.6893 259.755 39.986 259.354 39.2827V28.8341C259.755 28.1308 260.356 27.4276 261.257 26.8248C262.959 25.7196 265.062 25.7196 266.965 25.7196H276.277V25.8201ZM276.277 15.8738V22.6051H275.677L260.556 22.5047V15.8738H276.277V15.8738ZM276.277 6.83178C275.777 6.93224 275.276 7.23364 275.276 7.63551V7.83645C275.276 8.23832 275.577 8.43925 275.777 8.84112L276.177 9.34346V6.83178H276.277ZM276.277 3.21495H273.774C273.474 3.21495 272.973 3.31542 272.773 3.61682C272.472 4.01869 272.472 4.42056 272.472 4.72196V10.8505H274.876V5.72664C274.876 5.5257 274.876 5.32477 275.076 5.2243C275.176 5.12383 275.276 5.12383 275.476 5.12383H276.277V3.21495ZM276.277 0.904206V1.50701H276.177C274.675 1.50701 273.173 2.21028 272.172 3.21495C271.17 4.21963 270.47 5.72664 270.47 7.23364C270.47 8.84112 271.07 10.3481 272.172 11.3528C273.173 12.3575 274.575 13.0607 276.177 13.0607H276.277V13.6636H276.177C274.375 13.6636 272.873 12.8598 271.771 11.8551C270.57 10.6495 269.869 9.04206 269.869 7.23364C269.869 5.5257 270.57 3.91822 271.771 2.81308C272.873 1.70794 274.475 0.904206 276.277 0.904206ZM287.493 11.3528C288.594 11.3528 289.796 11.2523 290.697 10.5491C291.298 9.74533 291.498 8.94159 291.498 8.13785V3.31542H288.895V7.93692C288.895 8.23832 288.895 8.64019 288.494 9.04206C288.194 9.24299 287.893 9.34346 287.493 9.34346C287.092 9.34346 286.692 9.24299 286.592 9.04206C286.191 8.74065 286.091 8.23832 286.091 7.93692L286.191 3.31542L283.587 3.21495V8.03738C283.587 8.84112 283.688 9.74533 284.489 10.3481C285.19 11.2523 286.391 11.3528 287.493 11.3528ZM276.277 9.44392L277.379 10.8505H280.383L278.18 8.64019V8.53972H278.48C279.081 8.53972 279.582 8.23832 279.882 7.63551C280.183 7.03271 280.183 6.1285 280.183 5.8271C280.183 5.2243 280.083 4.6215 279.782 4.01869C279.282 3.21495 278.48 3.21495 277.88 3.21495H276.277V5.2243H276.778C277.079 5.2243 277.379 5.2243 277.479 5.42523C277.479 5.42523 277.679 5.62617 277.679 6.02804C277.679 6.22897 277.579 6.53037 277.479 6.63084C277.279 6.93224 276.978 6.93224 276.878 6.93224H276.378H276.277V9.44392ZM276.277 13.764V13.0607C279.382 13.0607 281.885 10.4486 281.985 7.33411C281.985 4.21963 279.382 1.60748 276.277 1.50701V0.904206C279.782 0.904206 282.686 3.81776 282.686 7.33411C282.686 10.8505 279.782 13.6636 276.277 13.764ZM276.277 42.6986V35.465H278.681C279.282 35.465 280.083 35.3645 280.483 35.0631C281.084 34.7617 281.084 34.2593 281.084 33.757V32.1495H276.378V25.8201H281.184V25.4182C281.184 24.9159 281.084 24.2126 280.483 23.6098C279.582 22.6051 278.08 22.6051 276.878 22.6051H276.378V15.8738H282.085C285.991 15.8738 288.594 17.0794 289.996 18.1846C292.7 20.3949 293.1 23.6098 293.1 25.7196V36.8715C293.1 38.278 293 39.8855 291.498 41.1916C289.896 42.4977 287.793 42.5981 285.991 42.5981H276.277V42.6986Z" fill="black"/>
</g>
<defs>
<clipPath id="clip0_10_65">
<rect width="293" height="43" fill="white"/>
</clipPath>
</defs>
</svg>
